<svg width="700" height="900" viewBox="0 0 700 900" fill="none" xmlns="http://www.w3.org/2000/svg">
<path d="M341.145 80C345.175 81.3633 357.511 94.1082 361.238 97.9226C382.663 119.455 398.444 145.949 407.167 175.048C450.227 319.822 254.104 406.074 264.284 557.597C271.582 666.236 385.587 724.754 384.389 821C382.163 813.673 380.408 807.769 377.464 800.653C355.01 752.689 314.716 717.265 279.039 679.242C260.81 659.818 243.525 639.006 229.004 616.644C111.703 436.01 332.937 340.529 365.353 185.855C373.758 145.75 362.732 113.281 341.145 80Z" fill="#FEFEFE"/>
<path d="M453.475 290.787C462.838 295.07 473.322 306.815 478.951 315.236C488.068 328.732 493.084 344.577 493.394 360.86C494.697 420.645 438.744 468.729 408.998 516.39C371.327 576.733 376.322 635.442 415.846 692.974C412.598 690.353 409.315 687.774 405.997 685.238C364.352 654.506 330.267 602.963 338.693 549.313C351.452 467.989 437.56 426.285 460.676 350.095C466.136 332.113 462.937 306.953 453.475 290.787Z" fill="#FEFEFE"/>
</svg>
